<svg width="42" height="41" viewBox="0 0 42 41" fill="none" xmlns="http://www.w3.org/2000/svg">
<path d="M21 40.9166L18.9167 34.7916H4.33333C3.1875 34.7916 2.2066 34.3918 1.39062 33.5922C0.574653 32.7925 0.166667 31.8312 0.166667 30.7083V4.16665C0.166667 3.04373 0.574653 2.08245 1.39062 1.28279C2.2066 0.483139 3.1875 0.083313 4.33333 0.083313H16.8333L18.6562 6.20831H37.6667C38.8819 6.20831 39.8802 6.59113 40.6615 7.35675C41.4427 8.12238 41.8333 9.10067 41.8333 10.2916V36.8333C41.8333 37.9562 41.4427 38.9175 40.6615 39.7172C39.8802 40.5168 38.8819 40.9166 37.6667 40.9166H21ZM10.8958 25.8083C13.2917 25.8083 15.2622 25.0512 16.8073 23.537C18.3524 22.0227 19.125 20.0576 19.125 17.6416C19.125 17.3694 19.1163 17.1227 19.099 16.9015C19.0816 16.6804 19.0382 16.4507 18.9688 16.2125H10.7396V19.3771H15.375C15.0972 20.3298 14.5677 21.0699 13.7865 21.5974C13.0052 22.1248 12.059 22.3885 10.9479 22.3885C9.59375 22.3885 8.43056 21.9121 7.45833 20.9594C6.48611 20.0066 6 18.8326 6 17.4375C6 16.0423 6.48611 14.8684 7.45833 13.9156C8.43056 12.9628 9.59375 12.4864 10.9479 12.4864C11.5729 12.4864 12.1632 12.597 12.7187 12.8182C13.2743 13.0394 13.7778 13.3712 14.2292 13.8135L16.7812 11.4146C16.0521 10.666 15.1753 10.0875 14.151 9.67915C13.1267 9.27081 12.0417 9.06665 10.8958 9.06665C8.56944 9.06665 6.5816 9.87481 4.93229 11.4911C3.28299 13.1074 2.45833 15.0896 2.45833 17.4375C2.45833 19.7854 3.28299 21.7675 4.93229 23.3838C6.5816 25.0002 8.56944 25.8083 10.8958 25.8083ZM24.8542 26.8291L26 25.7573C25.5139 25.1788 25.0712 24.6173 24.6719 24.0729C24.2726 23.5285 23.8819 22.95 23.5 22.3375L24.8542 26.8291ZM27.4583 24.226C28.4306 23.1031 29.1684 22.0312 29.6719 21.0104C30.1753 19.9896 30.5139 19.1899 30.6875 18.6114H22.4062L23.0312 20.7552H25.1146C25.3924 21.2656 25.7222 21.8186 26.1042 22.414C26.4861 23.0095 26.9375 23.6135 27.4583 24.226ZM23.0833 38.875H37.6667C38.2917 38.875 38.7951 38.6793 39.1771 38.288C39.559 37.8967 39.75 37.4118 39.75 36.8333V10.2916C39.75 9.67915 39.559 9.18574 39.1771 8.81144C38.7951 8.43713 38.2917 8.24998 37.6667 8.24998H19.2812L21.7292 16.5187H25.8437V14.375H27.9792V16.5187H35.5833V18.6114H32.9271C32.5799 19.9045 32.059 21.1635 31.3646 22.3885C30.6701 23.6135 29.8542 24.7535 28.9167 25.8083L34.5937 31.2698L33.0833 32.75L27.4583 27.2375L25.5833 29.126L27.25 34.7916L23.0833 38.875Z" fill="white"/>
</svg>
