<svg width="48" height="41" viewBox="0 0 48 41" fill="none" xmlns="http://www.w3.org/2000/svg">
<path d="M46 2.99997C44.0848 4.35092 41.9642 5.38419 39.72 6.05997C38.5155 4.67499 36.9147 3.69335 35.1341 3.24782C33.3535 2.80229 31.479 2.91436 29.7642 3.56888C28.0493 4.22339 26.5769 5.38877 25.546 6.9074C24.515 8.42603 23.9754 10.2246 24 12.06V14.06C20.4853 14.1511 17.0025 13.3716 13.862 11.7909C10.7215 10.2101 8.02063 7.87724 6 4.99997C6 4.99997 -2 23 16 31C11.8811 33.7959 6.97431 35.1978 2 35C20 45 42 35 42 12C41.9982 11.4429 41.9446 10.8872 41.84 10.34C43.8812 8.32696 45.3217 5.7854 46 2.99997Z" stroke="white" stroke-width="4" stroke-linecap="round" stroke-linejoin="round"/>
</svg>
