<?xml version="1.0" encoding="iso-8859-1"?>
<!-- Uploaded to: SVG Repo, www.svgrepo.com, Generator: SVG Repo Mixer Tools -->
<svg fill="#000000" height="800px" width="800px" version="1.1" id="Capa_1" xmlns="http://www.w3.org/2000/svg" xmlns:xlink="http://www.w3.org/1999/xlink" 
	 viewBox="0 0 612 612" xml:space="preserve">
<g>
	<g>
		<g>
			<path d="M593.304,537.29H18.696C8.371,537.29,0,545.662,0,555.987c0,10.327,8.371,18.696,18.696,18.696h574.607
				c10.325,0,18.696-8.37,18.696-18.696C612,545.663,603.629,537.29,593.304,537.29z"/>
			<path d="M593.304,324.232H454.736c-10.325,0-18.696,8.371-18.696,18.696v138.569c0,10.325,8.371,18.696,18.696,18.696h138.568
				c10.325,0,18.696-8.371,18.696-18.696V342.928C612,332.603,603.629,324.232,593.304,324.232z M574.607,462.801H473.432V361.625
				h101.175V462.801z"/>
			<path d="M18.696,500.194h138.568c10.325,0,18.696-8.371,18.696-18.696V234.776c0-10.325-8.371-18.696-18.696-18.696H18.696
				C8.371,216.08,0,224.451,0,234.776v246.721C0,491.823,8.371,500.194,18.696,500.194z M37.393,253.473h101.175v209.328H37.393
				V253.473z"/>
			<path d="M236.717,500.194h138.564c10.325,0,18.696-8.371,18.696-18.696V56.013c0-10.327-8.371-18.696-18.696-18.696H236.717
				c-10.325,0-18.696,8.37-18.696,18.696v425.484C218.021,491.823,226.392,500.194,236.717,500.194z M255.413,74.71h101.172v388.092
				H255.413L255.413,74.71L255.413,74.71z"/>
		</g>
	</g>
</g>
</svg>